<svg width="2064" height="954" viewBox="0 0 2064 954" fill="none" xmlns="http://www.w3.org/2000/svg">
<g filter="url(#filter0_ddd)">
<rect width="753.343" height="234.925" rx="18" transform="matrix(0.992192 -0.124718 -0.388087 0.921623 389.95 93.9556)" fill="url(#paint0_linear)"/>
</g>
<g filter="url(#filter1_ddd)">
<rect width="214.443" height="319.657" rx="18" transform="matrix(0.987011 -0.16065 -0.354379 0.935102 238.28 427.451)" fill="url(#paint1_linear)"/>
</g>
<g filter="url(#filter2_ddddddd)">
<path d="M544.35 690.08C518.85 690.08 499.98 683.96 487.74 671.72C475.5 659.48 469.38 639.42 469.38 611.54C469.38 591.14 471.76 575.33 476.52 564.11C481.28 552.89 489.44 544.73 501 539.63C512.9 534.53 529.9 531.98 552 531.98C568.66 531.98 592.63 532.66 623.91 534.02V524.84C623.91 511.92 622.38 502.91 619.32 497.81C616.6 492.37 611.16 488.97 603 487.61C595.18 486.25 581.07 485.57 560.67 485.57C535.17 485.57 509.84 486.93 484.68 489.65V430.49C516.64 424.71 550.64 421.82 586.68 421.82C622.38 421.82 648.56 425.56 665.22 433.04C682.22 440.52 693.27 451.57 698.37 466.19C703.47 480.81 706.02 501.89 706.02 529.43V686H627.48L625.44 655.91H621.36C612.52 669.85 601.81 679.03 589.23 683.45C576.65 687.87 561.69 690.08 544.35 690.08ZM583.11 630.41C592.63 630.41 600.11 629.39 605.55 627.35C610.99 625.31 615.24 621.74 618.3 616.64C622.04 610.18 623.91 599.64 623.91 585.02V574.82H577.5C568.32 574.82 561.69 575.5 557.61 576.86C553.53 578.22 550.64 580.94 548.94 585.02C547.58 588.76 546.9 595.05 546.9 603.89C546.9 611.37 547.75 616.98 549.45 620.72C551.15 624.46 554.38 627.01 559.14 628.37C564.24 629.73 572.23 630.41 583.11 630.41ZM869.961 690.08C853.641 690.08 835.621 689.4 815.901 688.04C796.521 686.68 779.521 684.98 764.901 682.94V623.78C794.141 626.5 821.001 627.86 845.481 627.86C861.801 627.86 873.361 627.35 880.161 626.33C886.961 625.31 891.211 623.61 892.911 621.23C894.951 618.51 895.971 614.09 895.971 607.97C895.971 602.87 895.291 599.3 893.931 597.26C892.911 594.88 890.701 593.18 887.301 592.16C883.901 591.14 877.951 590.12 869.451 589.1L808.761 581.45C788.361 578.73 774.591 571.08 767.451 558.5C760.651 545.58 757.251 526.37 757.251 500.87C757.251 478.09 761.671 461.09 770.511 449.87C779.351 438.31 791.251 430.83 806.211 427.43C821.511 423.69 841.231 421.82 865.371 421.82C882.031 421.82 899.031 422.5 916.371 423.86C933.711 425.22 947.651 427.09 958.191 429.47V488.12C930.311 485.4 905.321 484.04 883.221 484.04C868.261 484.04 857.551 484.38 851.091 485.06C844.631 485.74 840.041 487.44 837.321 490.16C834.941 492.54 833.751 496.62 833.751 502.4C833.751 507.5 834.091 511.07 834.771 513.11C835.791 515.15 837.831 516.68 840.891 517.7C844.291 518.72 849.731 519.74 857.211 520.76L917.391 527.9C930.651 529.6 941.021 532.66 948.501 537.08C955.981 541.16 961.761 548.64 965.841 559.52C970.261 570.06 972.471 585.53 972.471 605.93C972.471 630.07 968.221 648.26 959.721 660.5C951.561 672.74 940.341 680.73 926.061 684.47C911.781 688.21 893.081 690.08 869.961 690.08ZM1046.5 686V489.65H999.585V425.9H1046.5V350.42H1129.63V425.9H1185.73V489.65H1129.63V686H1046.5ZM1453.67 576.35H1298.12C1298.12 592.67 1299.31 604.06 1301.69 610.52C1304.41 616.98 1310.02 621.23 1318.52 623.27C1327.36 625.31 1343 626.33 1365.44 626.33C1389.58 626.33 1415.59 624.97 1443.47 622.25V680.9C1432.59 683.62 1417.97 685.83 1399.61 687.53C1381.59 689.23 1363.74 690.08 1346.06 690.08C1306.28 690.08 1277.21 685.83 1258.85 677.33C1240.83 668.49 1229.27 655.23 1224.17 637.55C1219.07 619.87 1216.52 592.84 1216.52 556.46C1216.52 520.76 1219.07 493.9 1224.17 475.88C1229.27 457.86 1240.32 444.43 1257.32 435.59C1274.66 426.41 1301.69 421.82 1338.41 421.82C1375.13 421.82 1401.48 426.24 1417.46 435.08C1433.78 443.58 1443.81 456.5 1447.55 473.84C1451.63 490.84 1453.67 518.38 1453.67 556.46V576.35ZM1337.9 481.49C1325.66 481.49 1316.82 482.68 1311.38 485.06C1305.94 487.44 1302.37 492.2 1300.67 499.34C1298.97 506.14 1298.12 517.7 1298.12 534.02H1376.66C1376.66 517.7 1375.64 505.97 1373.6 498.83C1371.56 491.69 1367.99 487.1 1362.89 485.06C1357.79 482.68 1349.46 481.49 1337.9 481.49ZM1691.68 681.41C1666.18 687.19 1639.83 690.08 1612.63 690.08C1578.29 690.08 1552.96 685.15 1536.64 675.29C1520.66 665.09 1510.46 650.98 1506.04 632.96C1501.62 614.94 1499.41 589.27 1499.41 555.95C1499.41 523.65 1501.62 498.49 1506.04 480.47C1510.8 462.11 1521.17 447.83 1537.15 437.63C1553.47 427.09 1578.46 421.82 1612.12 421.82C1641.36 421.82 1667.2 424.71 1689.64 430.49V489.65C1671.28 486.93 1652.75 485.57 1634.05 485.57C1618.07 485.57 1606.51 487.44 1599.37 491.18C1592.57 494.58 1587.98 500.87 1585.6 510.05C1583.56 519.23 1582.54 534.53 1582.54 555.95C1582.54 577.37 1583.56 592.84 1585.6 602.36C1587.98 611.54 1592.57 617.83 1599.37 621.23C1606.51 624.63 1618.24 626.33 1634.56 626.33C1652.58 626.33 1671.62 624.97 1691.68 622.25V681.41ZM1899.22 548.81C1899.22 529.77 1898.37 516.51 1896.67 509.03C1895.31 501.55 1892.42 496.79 1888 494.75C1883.58 492.71 1875.42 491.69 1863.52 491.69C1851.96 491.69 1843.46 493.39 1838.02 496.79C1832.92 499.85 1829.52 505.29 1827.82 513.11C1826.12 520.93 1825.27 533.34 1825.27 550.34V686H1743.16V307.07H1825.27V455.99H1829.35C1836.49 443.75 1846.18 435.08 1858.42 429.98C1871 424.54 1885.79 421.82 1902.79 421.82C1924.89 421.82 1941.55 425.73 1952.77 433.55C1964.33 441.03 1971.98 451.91 1975.72 466.19C1979.46 480.13 1981.33 499.17 1981.33 523.31V686H1899.22V548.81Z" fill="#2930C3"/>
</g>
<g filter="url(#filter3_ddd)">
<rect width="461.994" height="159.107" rx="18" transform="matrix(0.995302 -0.0968186 -0.413804 0.910366 298.839 292.729)" fill="url(#paint2_linear)"/>
</g>
<defs>
<filter id="filter0_ddd" x="224.442" y="2.09155" width="987.307" height="486.285" filterUnits="userSpaceOnUse" color-interpolation-filters="sRGB">
<feFlood flood-opacity="0" result="BackgroundImageFix"/>
<feColorMatrix in="SourceAlpha" type="matrix" values="0 0 0 0 0 0 0 0 0 0 0 0 0 0 0 0 0 0 127 0"/>
<feOffset dy="6.6501"/>
<feGaussianBlur stdDeviation="2.66004"/>
<feColorMatrix type="matrix" values="0 0 0 0 0 0 0 0 0 0 0 0 0 0 0 0 0 0 0.141362 0"/>
<feBlend mode="normal" in2="BackgroundImageFix" result="effect1_dropShadow"/>
<feColorMatrix in="SourceAlpha" type="matrix" values="0 0 0 0 0 0 0 0 0 0 0 0 0 0 0 0 0 0 127 0"/>
<feOffset dy="22.3363"/>
<feGaussianBlur stdDeviation="8.93452"/>
<feColorMatrix type="matrix" values="0 0 0 0 0 0 0 0 0 0 0 0 0 0 0 0 0 0 0.208638 0"/>
<feBlend mode="normal" in2="effect1_dropShadow" result="effect2_dropShadow"/>
<feColorMatrix in="SourceAlpha" type="matrix" values="0 0 0 0 0 0 0 0 0 0 0 0 0 0 0 0 0 0 127 0"/>
<feOffset dy="100"/>
<feGaussianBlur stdDeviation="40"/>
<feColorMatrix type="matrix" values="0 0 0 0 0 0 0 0 0 0 0 0 0 0 0 0 0 0 0.35 0"/>
<feBlend mode="normal" in2="effect2_dropShadow" result="effect3_dropShadow"/>
<feBlend mode="normal" in="SourceGraphic" in2="effect3_dropShadow" result="shape"/>
</filter>
<filter id="filter1_ddd" x="0.263306" y="365.643" width="574.411" height="588.078" filterUnits="userSpaceOnUse" color-interpolation-filters="sRGB">
<feFlood flood-opacity="0" result="BackgroundImageFix"/>
<feColorMatrix in="SourceAlpha" type="matrix" values="0 0 0 0 0 0 0 0 0 0 0 0 0 0 0 0 0 0 127 0"/>
<feOffset dy="6.6501"/>
<feGaussianBlur stdDeviation="4.32257"/>
<feColorMatrix type="matrix" values="0 0 0 0 0 0 0 0 0 0 0 0 0 0 0 0 0 0 0.11309 0"/>
<feBlend mode="normal" in2="BackgroundImageFix" result="effect1_dropShadow"/>
<feColorMatrix in="SourceAlpha" type="matrix" values="0 0 0 0 0 0 0 0 0 0 0 0 0 0 0 0 0 0 127 0"/>
<feOffset dy="22.3363"/>
<feGaussianBlur stdDeviation="14.5186"/>
<feColorMatrix type="matrix" values="0 0 0 0 0 0 0 0 0 0 0 0 0 0 0 0 0 0 0.16691 0"/>
<feBlend mode="normal" in2="effect1_dropShadow" result="effect2_dropShadow"/>
<feColorMatrix in="SourceAlpha" type="matrix" values="0 0 0 0 0 0 0 0 0 0 0 0 0 0 0 0 0 0 127 0"/>
<feOffset dy="100"/>
<feGaussianBlur stdDeviation="65"/>
<feColorMatrix type="matrix" values="0 0 0 0 0 0 0 0 0 0 0 0 0 0 0 0 0 0 0.28 0"/>
<feBlend mode="normal" in2="effect2_dropShadow" result="effect3_dropShadow"/>
<feBlend mode="normal" in="SourceGraphic" in2="effect3_dropShadow" result="shape"/>
</filter>
<filter id="filter2_ddddddd" x="389.38" y="307.07" width="1671.95" height="563.01" filterUnits="userSpaceOnUse" color-interpolation-filters="sRGB">
<feFlood flood-opacity="0" result="BackgroundImageFix"/>
<feColorMatrix in="SourceAlpha" type="matrix" values="0 0 0 0 0 0 0 0 0 0 0 0 0 0 0 0 0 0 127 0"/>
<feOffset dy="2.31722"/>
<feGaussianBlur stdDeviation="0.926888"/>
<feColorMatrix type="matrix" values="0 0 0 0 0 0 0 0 0 0 0 0 0 0 0 0 0 0 0.0878304 0"/>
<feBlend mode="normal" in2="BackgroundImageFix" result="effect1_dropShadow"/>
<feColorMatrix in="SourceAlpha" type="matrix" values="0 0 0 0 0 0 0 0 0 0 0 0 0 0 0 0 0 0 127 0"/>
<feOffset dy="5.38772"/>
<feGaussianBlur stdDeviation="2.15509"/>
<feColorMatrix type="matrix" values="0 0 0 0 0 0 0 0 0 0 0 0 0 0 0 0 0 0 0.126894 0"/>
<feBlend mode="normal" in2="effect1_dropShadow" result="effect2_dropShadow"/>
<feColorMatrix in="SourceAlpha" type="matrix" values="0 0 0 0 0 0 0 0 0 0 0 0 0 0 0 0 0 0 127 0"/>
<feOffset dy="9.67509"/>
<feGaussianBlur stdDeviation="3.87004"/>
<feColorMatrix type="matrix" values="0 0 0 0 0 0 0 0 0 0 0 0 0 0 0 0 0 0 0.156418 0"/>
<feBlend mode="normal" in2="effect2_dropShadow" result="effect3_dropShadow"/>
<feColorMatrix in="SourceAlpha" type="matrix" values="0 0 0 0 0 0 0 0 0 0 0 0 0 0 0 0 0 0 127 0"/>
<feOffset dy="16.0571"/>
<feGaussianBlur stdDeviation="6.42283"/>
<feColorMatrix type="matrix" values="0 0 0 0 0 0 0 0 0 0 0 0 0 0 0 0 0 0 0.183582 0"/>
<feBlend mode="normal" in2="effect3_dropShadow" result="effect4_dropShadow"/>
<feColorMatrix in="SourceAlpha" type="matrix" values="0 0 0 0 0 0 0 0 0 0 0 0 0 0 0 0 0 0 127 0"/>
<feOffset dy="26.4535"/>
<feGaussianBlur stdDeviation="10.5814"/>
<feColorMatrix type="matrix" values="0 0 0 0 0 0 0 0 0 0 0 0 0 0 0 0 0 0 0.213106 0"/>
<feBlend mode="normal" in2="effect4_dropShadow" result="effect5_dropShadow"/>
<feColorMatrix in="SourceAlpha" type="matrix" values="0 0 0 0 0 0 0 0 0 0 0 0 0 0 0 0 0 0 127 0"/>
<feOffset dy="46.233"/>
<feGaussianBlur stdDeviation="18.4932"/>
<feColorMatrix type="matrix" values="0 0 0 0 0 0 0 0 0 0 0 0 0 0 0 0 0 0 0.25217 0"/>
<feBlend mode="normal" in2="effect5_dropShadow" result="effect6_dropShadow"/>
<feColorMatrix in="SourceAlpha" type="matrix" values="0 0 0 0 0 0 0 0 0 0 0 0 0 0 0 0 0 0 127 0"/>
<feOffset dy="100"/>
<feGaussianBlur stdDeviation="40"/>
<feColorMatrix type="matrix" values="0 0 0 0 0 0 0 0 0 0 0 0 0 0 0 0 0 0 0.34 0"/>
<feBlend mode="normal" in2="effect6_dropShadow" result="effect7_dropShadow"/>
<feBlend mode="normal" in="SourceGraphic" in2="effect7_dropShadow" result="shape"/>
</filter>
<filter id="filter3_ddd" x="158.957" y="249.649" width="673.749" height="366.278" filterUnits="userSpaceOnUse" color-interpolation-filters="sRGB">
<feFlood flood-opacity="0" result="BackgroundImageFix"/>
<feColorMatrix in="SourceAlpha" type="matrix" values="0 0 0 0 0 0 0 0 0 0 0 0 0 0 0 0 0 0 127 0"/>
<feOffset dy="6.6501"/>
<feGaussianBlur stdDeviation="2.66004"/>
<feColorMatrix type="matrix" values="0 0 0 0 0 0 0 0 0 0 0 0 0 0 0 0 0 0 0.129246 0"/>
<feBlend mode="normal" in2="BackgroundImageFix" result="effect1_dropShadow"/>
<feColorMatrix in="SourceAlpha" type="matrix" values="0 0 0 0 0 0 0 0 0 0 0 0 0 0 0 0 0 0 127 0"/>
<feOffset dy="22.3363"/>
<feGaussianBlur stdDeviation="8.93452"/>
<feColorMatrix type="matrix" values="0 0 0 0 0 0 0 0 0 0 0 0 0 0 0 0 0 0 0.190754 0"/>
<feBlend mode="normal" in2="effect1_dropShadow" result="effect2_dropShadow"/>
<feColorMatrix in="SourceAlpha" type="matrix" values="0 0 0 0 0 0 0 0 0 0 0 0 0 0 0 0 0 0 127 0"/>
<feOffset dy="100"/>
<feGaussianBlur stdDeviation="40"/>
<feColorMatrix type="matrix" values="0 0 0 0 0 0 0 0 0 0 0 0 0 0 0 0 0 0 0.32 0"/>
<feBlend mode="normal" in2="effect2_dropShadow" result="effect3_dropShadow"/>
<feBlend mode="normal" in="SourceGraphic" in2="effect3_dropShadow" result="shape"/>
</filter>
<linearGradient id="paint0_linear" x1="376.671" y1="0" x2="376.671" y2="234.925" gradientUnits="userSpaceOnUse">
<stop stop-color="#191B59"/>
<stop offset="0.802083" stop-color="#2A30C4"/>
</linearGradient>
<linearGradient id="paint1_linear" x1="107.222" y1="0" x2="107.222" y2="319.657" gradientUnits="userSpaceOnUse">
<stop stop-color="#191B59"/>
<stop offset="0.802083" stop-color="#2A30C4"/>
</linearGradient>
<linearGradient id="paint2_linear" x1="230.997" y1="0" x2="230.997" y2="159.107" gradientUnits="userSpaceOnUse">
<stop stop-color="#191B59"/>
<stop offset="0.802083" stop-color="#2A30C4"/>
</linearGradient>
</defs>
</svg>
